<?xml version="1.0" encoding="utf-8"?>
<svg xmlns="http://www.w3.org/2000/svg" viewBox="0 0 24 24" width="96" height="96">
  <path d="M11.964 19c3.789-3.245 9.113-6.401 12.036-7.537-.451-.288-1.155-.703-1.949-1.154-3.771 1.244-8.174 4.003-12.108 7.122C10.611 17.936 11.314 18.459 11.964 19L11.964 19zM10.232 10.183c-.56-.27-1.173-.523-1.643-.739-1.426.703-3.284 1.767-5.63 3.444.505.27 1.047.595 1.624.92C6.388 12.473 8.211 11.211 10.232 10.183zM13.606 8.632c-.686-.379-3.068-1.262-4.71-1.641C8.409 7.171 7.723 7.442 7.254 7.64c.595.162 2.815.757 4.71 1.713C12.451 9.119 13.137 8.831 13.606 8.632zM5.54 8.398C3.429 9.372 1.209 10.706 0 11.481c.433.198.866.361 1.462.649 2.671-1.803 4.764-2.903 5.594-3.264C6.46 8.65 5.901 8.506 5.54 8.398L5.54 8.398zM15.194 8.074c.487-.162 1.047-.307 1.534-.451C15.32 7.028 13.552 6.397 11.964 6c-.253.072-1.011.27-1.534.433C10.971 6.595 12.758 7.01 15.194 8.074zM6.298 14.853c.577.343 1.191.811 1.786 1.208 3.952-3.065 7.85-5.427 12.126-6.761-.595-.307-1.119-.577-1.786-.902C15.862 9.047 11.477 10.796 6.298 14.853z" fill="#5B5B5B" />
</svg>