<?xml version="1.0" encoding="utf-8"?>
<svg xmlns="http://www.w3.org/2000/svg" viewBox="0 0 50 50" width="500" height="500">
  <path d="M16.59375 4C16.46875 4 16.363281 4.046875 16.25 4.09375L29.03125 23.0625L49.96875 29.875C49.953125 29.730469 49.921875 29.597656 49.84375 29.46875L34.25 4.46875C34.066406 4.175781 33.75 4 33.40625 4 Z M 16.21875 4.09375C16.027344 4.171875 15.863281 4.289063 15.75 4.46875L0.15625 29.46875C-0.0273438 29.757813 -0.0585938 30.128906 0.09375 30.4375L7.90625 46.4375C7.988281 46.609375 8.125 46.746094 8.28125 46.84375L20.71875 22.4375 Z M 8.28125 46.84375C8.4375 46.941406 8.621094 47 8.8125 47L40.3125 47C40.675781 47 41.011719 46.789063 41.1875 46.46875L49.875 30.46875C49.972656 30.285156 49.992188 30.105469 49.96875 29.90625L24.625 30.5625 Z M 24.40625 20.4375L19.90625 28.0625L29.3125 28.0625Z" fill="#5B5B5B" />
</svg>