<?xml version="1.0" encoding="utf-8"?>
<svg xmlns="http://www.w3.org/2000/svg" viewBox="0 0 50 50" width="500" height="500">
  <path d="M43.241,11.802c-1.381,0-2.5,1.119-2.5,2.5c0,0.89,0.469,1.666,1.169,2.109L33.508,34.05c-0.063,0.132-0.212,0.2-0.352,0.16s-0.233-0.174-0.219-0.32l2.298-23.096c0.122,0.018,0.245,0.038,0.372,0.038c1.381,0,2.5-1.119,2.5-2.5c0-1.381-1.119-2.5-2.5-2.5c-1.381,0-2.5,1.119-2.5,2.5c0,1.038,0.633,1.928,1.534,2.306l-6.14,22.983c-0.038,0.141-0.171,0.235-0.316,0.222c-0.145-0.012-0.261-0.127-0.274-0.273L25.58,7.815c1.321-0.067,2.374-1.15,2.374-2.487c0-1.381-1.119-2.5-2.5-2.5c-1.381,0-2.5,1.119-2.5,2.5c0,1.234,0.896,2.253,2.072,2.457l-2.145,25.74c-0.012,0.146-0.127,0.262-0.273,0.275c-0.146,0.013-0.28-0.081-0.317-0.222l-6.102-22.843c1.111-0.255,1.941-1.244,1.941-2.432c0-1.381-1.119-2.5-2.5-2.5s-2.5,1.119-2.5,2.5c0,1.355,1.08,2.452,2.425,2.492l2.289,23.007c0.014,0.145-0.078,0.28-0.219,0.32c-0.141,0.039-0.29-0.028-0.352-0.16L8.923,16.432c0.72-0.439,1.206-1.224,1.206-2.129c0-1.381-1.119-2.5-2.5-2.5s-2.5,1.119-2.5,2.5c0,1.381,1.119,2.5,2.5,2.5c0.271,0,0.526-0.054,0.77-0.133c3.747,12.294,7.854,26.258,7.854,26.258h0.015c1.916,2.004,4.78,3.851,8.821,3.819c3.959,0.032,7.932-1.825,9.436-3.729h0.001c0,0,4.131-14.045,7.887-26.365c0.26,0.092,0.536,0.151,0.827,0.151c1.381,0,2.5-1.119,2.5-2.5C45.741,12.922,44.621,11.802,43.241,11.802z M25.177,45.388c-3.037-0.079-5.027-0.662-6.996-2.188c-0.064-0.05-0.106-0.124-0.115-0.205s0.015-0.162,0.068-0.225c2.588-3.112,12.016-3.237,14.722-0.073c0.056,0.065,0.081,0.151,0.069,0.236c-0.011,0.085-0.058,0.161-0.129,0.209C30.058,44.997,28.714,45.292,25.177,45.388z" fill="#7C7C7C" />
</svg>