<?xml version="1.0" encoding="utf-8"?>
<svg xmlns="http://www.w3.org/2000/svg" viewBox="0 0 16 16" width="96" height="96">
  <path d="M1.5 2C0.6774686 2 0 2.6774686 0 3.5L0 10.5C0 11.322531 0.6774686 12 1.5 12L6.9941406 12C6.9930816 12.556531 6.5501381 13 5.9941406 13L5 13L5 14L5.9941406 14L10 14L10 13L9.0058594 13C8.4498619 13 8.0069184 12.556531 8.0058594 12L13.5 12C14.322531 12 15 11.322531 15 10.5L15 3.5C15 2.6774686 14.322531 2 13.5 2L1.5 2 z M 1.5 3L13.5 3C13.781469 3 14 3.2185314 14 3.5L14 10L1 10L1 3.5C1 3.2185314 1.2185314 3 1.5 3 z" fill="#7C7C7C" />
</svg>