<?xml version="1.0" encoding="utf-8"?>
<svg xmlns="http://www.w3.org/2000/svg" viewBox="0 0 16 16" width="96" height="96">
  <path d="M4.5 1C3.675781 1 3 1.675781 3 2.5L3 12.5C3 13.324219 3.675781 14 4.5 14L10.5 14C11.324219 14 12 13.324219 12 12.5L12 2.5C12 1.675781 11.324219 1 10.5 1 Z M 4.5 2L10.5 2C10.78125 2 11 2.21875 11 2.5L11 12.5C11 12.78125 10.78125 13 10.5 13L4.5 13C4.21875 13 4 12.78125 4 12.5L4 2.5C4 2.21875 4.21875 2 4.5 2 Z M 7.5 3C7.222656 3 7 3.222656 7 3.5C7 3.777344 7.222656 4 7.5 4C7.777344 4 8 3.777344 8 3.5C8 3.222656 7.777344 3 7.5 3 Z M 6 11L6 12L9 12L9 11Z" fill="#7C7C7C" />
</svg>